<?xml version="1.0" standalone="no"?>
<!DOCTYPE svg PUBLIC "-//W3C//DTD SVG 20010904//EN"
 "http://www.w3.org/TR/2001/REC-SVG-20010904/DTD/svg10.dtd">
<svg version="1.0" xmlns="http://www.w3.org/2000/svg"
 width="70.000000pt" height="70.000000pt" viewBox="0 0 70.000000 70.000000"
 preserveAspectRatio="xMidYMid meet">
<metadata>
Created by potrace 1.14, written by Peter Selinger 2001-2017
</metadata>
<g transform="translate(0.000000,70.000000) scale(0.100000,-0.100000)"
fill="#000000" stroke="none">
<path d="M0 350 l0 -350 350 0 350 0 0 350 0 350 -350 0 -350 0 0 -350z m568
33 l3 -153 -221 0 -220 0 0 148 c0 82 3 152 7 156 4 3 102 5 217 4 l211 -3 3
-152z m-158 -182 c0 -5 10 -11 22 -13 13 -2 24 -11 26 -20 3 -16 -7 -18 -108
-18 -101 0 -111 2 -108 18 2 9 13 18 26 20 12 2 22 8 22 13 0 5 27 9 60 9 33
0 60 -4 60 -9z"/>
<path d="M150 410 l0 -110 200 0 200 0 0 110 0 110 -200 0 -200 0 0 -110z"/>
<path d="M505 260 c3 -5 8 -10 11 -10 2 0 4 5 4 10 0 6 -5 10 -11 10 -5 0 -7
-4 -4 -10z"/>
<path d="M298 253 c6 -2 18 -2 25 0 6 3 1 5 -13 5 -14 0 -19 -2 -12 -5z"/>
<path d="M348 253 c7 -3 16 -2 19 1 4 3 -2 6 -13 5 -11 0 -14 -3 -6 -6z"/>
</g>
</svg>
